<?xml version="1.0" encoding="UTF-8"?>
<svg version="1.1" viewBox="0 0 1000 1000" xmlns="http://www.w3.org/2000/svg">
<rect x="0" y="0" width="1000" height="1000" rx="150" ry="150" fill="#070D1A"/>
<g transform="translate(-129.75,-101.8)">
<path transform="translate(774,285)" d="m0 0v2c-1 0.7-2 1-4 2-10 6-19 14-28 22l-4 4c-32 28-53 71-64 111 2 0.1 4 0.2 5 0.2 52 5 95 32 128 73 0.9 1 2 2 3 4 7 9 14 19 21 28 2 3 4 6 7 9 5 6 9 13 14 19 4 5 8 10 11 16 2 3 2 3 2 5-3 0.4-5 0.9-8 1-23 4-46 8-70 14-8 2-17 4-25 6-10 2-20 5-30 7-13 3-26 6-39 8-2 0.2-3 0.5-4 0.8-10 2-10 2-15 0.6 2-0.9 4-2 6-3 15-6 30-13 44-19 27-12 55-24 83-33 2-1 5-2 7-3 2-0.7 5-1 7-2-28-60-86-96-149-106-6-0.3-13-0.2-19-0.2-2-0.1-3-0.1-5-0.1-16-0.1-30 3-45 7-2 0.7-5 1-7 2-59 20-98 74-114 132-2 13-4 26-6 40h-1c-4-25-3-52 4-76 0.7-2 1-5 2-7 18-53 60-101 115-116 1-0.5 2-1 4-1 8-3 16-4 24-6 2-0.4 4-0.8 6-1 6-0.9 12-0.9 18-0.8 0.1-0.8 0.1-0.8 0.4-5 2-18 4-36 6-54 1-8 2-15 3-23 1-12 3-23 5-35-15 0.3-29 0.8-43 4-2 0.4-5 0.8-7 1-88 18-154 85-183 168-13 42-15 83-6 126l0.9 4c2 10 5 18 8 28 0.5 2 1 3 2 5l4 11c2 7 5 14 7 21 0.4 2 0.9 4 1 5 10 45 3 87-28 122-0.7 0.3-1 0.7-2 1 2-5 3-10 5-15 5-11 8-22 10-34 0.3-0.7 0.7-1 1-2 0.3-6 0.2-12 0.2-18v-5c0.1-26-8-50-17-74-0.6-1-1-3-2-4-2-5-4-10-6-16-6-16-8-32-11-49-0.4-2-0.7-5-1-7-1-10-1-19-1-29v-6c0.1-14 1-28 3-42 0.3-2 0.6-5 0.9-7 8-47 30-92 60-129 1-2 3-4 4-5 10-12 21-22 33-32 1-1 2-2 4-3 26-20 55-37 86-46 1-0.5 3-1 4-2 56-21 130-18 185 4z" fill="#EEC780"/>
<path transform="translate(827,610)" d="m0 0c4 14 4 28 4 43 2 16 8 29 15 43 2 3 3 6 4 9 0.6 1 1 3 2 4 4 8 5 14 0.6 22-6 3-10 4-16 5-2 0.2-3 0.5-5 0.7-1 0.2-3 0.4-4 0.6 0.5 5 1 10 3 15 0 8 0 8-5 14h-4c1 2 2 5 3 7 0 8-2 10-9 15-0.2 6 0 13 0.2 19-0.4 12-4 21-14 28-20 6-40-1-59-6-15-4-28-4-40 6-14 18-20 38-20 61v8c0.6 11 4 20 8 30 0.3 2 0.7 3 1 5-22-13-31-34-31-59-0.1-2-0.1-5-0.1-8 0.3-7 1-12 3-18 0.4-1 0.4-1 2-8 7-18 17-35 37-40 18-3 35 3 52 7 30 7 30 7 40 2 4-7 2-16 2-24 0.8-7 2-9 7-14 0.3-0.7 0.7-1 1-2-0.8-1-2-2-2-3-2-4-2-4-2-9 4-4 8-6 12-9-0.6-5-2-9-4-14-2-9-2-12 3-20 4-1 4-1 9-2 1-0.2 1-0.2 6-1h8c-3-10-8-20-12-30-5-10-9-20-10-32-0.3-2-0.7-4-1-6-20-3-42-0.2-62 4-4 0.7-8 1-12 2 16-23 45-37 72-44 2-0.4 4-0.8 5-1 5-1 5-1 12-1z" fill="#E7BD72"/>
<path transform="translate(682,641)" d="m0 0c-0.6 6-2 12-4 18s-3 12-5 18c-11 56-46 102-96 130-2 0.9-3 2-5 3-13 7-26 13-40 19-29 13-56 27-79 49l-5 4c-11 12-20 26-29 40-6-20 21-56 32-69 25-26 55-42 87-58 64-31 105-72 119-142 2-7 4-9 11-12 6-1 6-1 12-1z" fill="#E1B56A"/>
<path transform="translate(536,379)" d="m0 0c2 3 4 6 6 10 1 2 2 4 4 6 1 2 3 4 4 6 3 4 6 9 9 13 2 4 5 8 7 12 1 2 2 3 3 4 2 4 2 4-0.1 8-6 4-6 4-10 4-2-3-2-3-5-8-4-8-9-15-14-22-17-26-17-26-14-30 6-4 6-4 10-3z" fill="#EFC981"/>
<path transform="translate(471,444)" d="m0 0c7 3 13 7 19 11 9 6 19 12 28 18-2 4-4 8-8 11-8-3-14-8-21-12l-11-7c-2-1-3-2-5-3-2-0.9-3-2-4-3l-3-3c2-6 2-6 6-12z" fill="#EBC378"/>
</g>
</svg>
